/* XPM */
static char *c64f17760c9c47bdb52fc4b551200417[] = {
/* columns rows colors chars-per-pixel */
"16 16 80 1 ",
"  c #337AB4",
". c #337BB4",
"X c #327BB5",
"o c #347BB4",
"O c #357BB5",
"+ c #347CB5",
"@ c #367CB5",
"# c #347DB6",
"$ c #357EB7",
"% c #357FB7",
"& c #367EB6",
"* c #397EB6",
"= c #3580B8",
"- c #3681B8",
"; c #3681B9",
": c #3682B9",
"> c #3683BA",
", c #3783BA",
"< c #3784BA",
"1 c #3785BB",
"2 c #3C80B8",
"3 c #3886BB",
"4 c #3886BC",
"5 c #3887BC",
"6 c #3988BD",
"7 c #3989BE",
"8 c #398ABE",
"9 c #3A8BBF",
"0 c #4485BA",
"q c #4686BB",
"w c #4787BB",
"e c #4C8BBD",
"r c #508DBE",
"t c #518DBF",
"y c #3A8CC0",
"u c #3B8EC1",
"i c #3B8FC1",
"p c #3C90C2",
"a c #3C91C3",
"s c #3C92C3",
"d c #3D93C4",
"f c #3D94C5",
"g c #3E95C5",
"h c #409CCA",
"j c #419CCA",
"k c #419ECB",
"l c #429FCC",
"z c #42A0CC",
"x c #42A1CD",
"c c #43A2CD",
"v c #43A2CE",
"b c #43A3CE",
"n c #44A4CF",
"m c #44A5D0",
"M c #45A6D0",
"N c #45A7D1",
"B c #45A8D2",
"V c #46A9D2",
"C c #46AAD2",
"Z c #46AAD3",
"A c #46ABD3",
"S c #47ACD4",
"D c #47ADD4",
"F c #47ADD5",
"G c #47AED5",
"H c #47AFD6",
"J c #48AED5",
"K c #48AED6",
"L c #48AFD6",
"P c #49AFD6",
"I c #4AB0D6",
"U c #4BB0D7",
"Y c #4DB1D7",
"T c #50B2D8",
"R c #57B6D9",
"E c #59B7DA",
"W c #5AB7DA",
"Q c #5EB9DB",
"! c #62BADC",
"~ c None",
/* pixels */
"~~~~~Q!RYUD~~~~~",
"~~~UE!ETUDDDS~~~",
"~~LLUHHDHDDVm~~~",
"~~LLHU~~~Vmn~~~~",
"~LLLLL~~mnxx~~~~",
"~LLDD~~~xxl~~~g~",
"LDVV~~~~lh~~~uau",
"LVVm~~~~~~~~~uyy",
"mmx~~~~~~~~~994<",
"nxx~~~gp~~~~5<::",
"~j~~~gpu~~~<:$$~",
"~~~~puu9~~::$$.~",
"~~~~u95~~~$$..~~",
"~~~953:%$. O..~~",
"~~~5<:$$*wrq$~~~",
"~~~~~$$*qre~~~~~"
};
