/* XPM */
static char *_5330da5aa914467b50d3753e3e98f1f[] = {
/* columns rows colors chars-per-pixel */
"32 32 134 2 ",
"   c #327AB4",
".  c #337AB4",
"X  c #337BB4",
"o  c #337BB5",
"O  c #347AB4",
"+  c #347BB4",
"@  c #347BB5",
"#  c #357BB5",
"$  c #347CB5",
"%  c #347CB6",
"&  c #347DB6",
"*  c #357DB6",
"=  c #347EB6",
"-  c #357EB6",
";  c #357EB7",
":  c #357FB7",
">  c #387DB6",
",  c #387EB6",
"<  c #397EB6",
"1  c #3C80B7",
"2  c #3580B8",
"3  c #3680B8",
"4  c #3681B8",
"5  c #3681B9",
"6  c #3682B9",
"7  c #3683BA",
"8  c #3783BA",
"9  c #3784BA",
"0  c #3784BB",
"q  c #3785BB",
"w  c #3D81B8",
"e  c #3E81B8",
"r  c #3F82B8",
"t  c #3885BB",
"y  c #3886BC",
"u  c #3887BC",
"i  c #3887BD",
"p  c #3888BD",
"a  c #3988BD",
"s  c #3989BD",
"d  c #3989BE",
"f  c #398ABE",
"g  c #3A8ABF",
"h  c #3A8BBF",
"j  c #3A8CBF",
"k  c #4082B9",
"l  c #4586BB",
"z  c #4687BB",
"x  c #4988BC",
"c  c #4A89BC",
"v  c #4D8BBE",
"b  c #4F8CBE",
"n  c #3A8CC0",
"m  c #3A8DC0",
"M  c #3B8DC0",
"N  c #3B8EC1",
"B  c #3B8FC1",
"V  c #3B8FC2",
"C  c #3C90C2",
"Z  c #3C91C3",
"A  c #3D92C4",
"S  c #3D93C4",
"D  c #3D94C4",
"F  c #3D94C5",
"G  c #3E95C5",
"H  c #3E96C6",
"J  c #3E97C7",
"K  c #3F97C7",
"L  c #3F99C8",
"P  c #528EC0",
"I  c #409AC8",
"U  c #409BC9",
"Y  c #409CCA",
"T  c #419CCA",
"R  c #419DCA",
"E  c #419ECB",
"W  c #429FCC",
"Q  c #5590C0",
"!  c #5691C1",
"~  c #5892C2",
"^  c #6198C5",
"/  c #6C9FC9",
"(  c #42A0CC",
")  c #42A0CD",
"_  c #42A1CD",
"`  c #43A1CD",
"'  c #43A2CD",
"]  c #43A2CE",
"[  c #43A3CE",
"{  c #43A3CF",
"}  c #43A4CF",
"|  c #44A4CF",
" . c #44A5CF",
".. c #44A5D0",
"X. c #44A6D0",
"o. c #45A6D1",
"O. c #45A7D1",
"+. c #45A8D1",
"@. c #45A8D2",
"#. c #45A9D2",
"$. c #46A9D2",
"%. c #46AAD3",
"&. c #46ABD3",
"*. c #46ABD4",
"=. c #47ABD4",
"-. c #47ACD4",
";. c #47ADD5",
":. c #47AED5",
">. c #47AFD6",
",. c #48AED5",
"<. c #48AED6",
"1. c #48AFD6",
"2. c #49AFD6",
"3. c #49B0D6",
"4. c #4AB0D6",
"5. c #4CB1D7",
"6. c #4DB1D7",
"7. c #50B2D8",
"8. c #51B3D8",
"9. c #52B3D8",
"0. c #55B5D9",
"q. c #58B6DA",
"w. c #5AB7DA",
"e. c #5CB8DB",
"r. c #5EB9DB",
"t. c #60B9DB",
"y. c #65BCDD",
"u. c #66BCDD",
"i. c #67BCDD",
"p. c #68BDDD",
"a. c #72C2DF",
"s. c #7BC5E1",
"d. c #7CC6E2",
"f. c None",
/* pixels */
"f.f.f.f.f.f.f.f.f.f.f.f.f.f.f.f.f.f.f.f.f.f.f.f.f.f.f.f.f.f.f.f.",
"f.f.f.f.f.f.f.f.f.1.8.t.i.i.r.w.8.6.1.1.1.1.f.f.f.f.f.f.f.f.f.f.",
"f.f.f.f.f.f.f.1.6.i.d.d.a.i.w.8.6.1.1.1.1.1.1.;.f.%.%.f.f.f.f.f.",
"f.f.f.f.f.f.1.6.r.r.0.6.1.1.>.>.1.1.1.1.1.;.%.%.%.%.f.f.f.f.f.f.",
"f.f.f.f.f.1.1.4.1.>.>.1.;.4.>.4.1.1.1.;.*.*.%.%.%.O.f.f.f.f.f.f.",
"f.f.f.f.1.1.1.1.1.1.1.1.>.f.f.f.f.f.;.%.%.%.O.O. .f.f.f.f.f.f.f.",
"f.f.f.f.1.1.1.1.1.1.>.;.4.f.f.f.f.f.;.%.O.O. .O.| f.f.f.f.f.f.f.",
"f.f.f.1.1.1.1.1.1.1.1.4.f.f.f.f.f.f.%.O.O. .) | f.f.f.f.f.f.f.f.",
"f.f.f.1.1.1.1.1.1.1.1.1.f.f.f.f.f.O. .| ) | ) f.f.f.f.f.f.f.f.f.",
"f.f.1.1.1.1.1.1.1.-.1.f.f.f.f.f.f.| | | | ( ) f.f.f.f.f.f.F f.f.",
"f.f.1.1.1.1.1.1.;.;.f.f.f.f.f.f. .) | E E E f.f.f.f.f.f.F F f.f.",
"f.1.1.1.1.1.1.-.%.%.f.f.f.f.f.) | ) E E E E f.f.f.f.f.F F S S f.",
"1.1.1.1.*.=.%.%.%.f.f.f.f.f.f.) E E E U U f.f.f.f.f.f.S S C N f.",
"1.1.1.-.%.%.%.O.O.f.f.f.f.f.f.W E E U I L f.f.f.f.f.S C C N j N ",
";.*.*.%.%.%. . .f.f.f.f.f.f.f.f.f.f.f.f.f.f.f.f.f.f.N N j h h h ",
"*.%.%.O.O. .| | f.f.f.f.f.f.f.f.f.f.f.f.f.f.f.f.f.N j N j p h y ",
"%.%.%.O. . .) f.f.f.f.f.f.f.f.f.f.f.f.f.f.f.f.f.f.N h h p y u 6 ",
" . .) ) ) ) f.f.f.f.f.f.f.f.f.f.f.f.f.f.f.f.f.f.h h h y u u u 6 ",
" . .| ) ) ) f.f.f.f.f.I F F F S f.f.f.f.f.f.f.h y y u 6 u 6 6 : ",
"f.) ( ) E f.f.f.f.f.f.I F F F C C f.f.f.f.f.f.y u u 6 u 6 6 : : ",
"f.W E E E f.f.f.f.f.F S S C C N N f.f.f.f.f.y y 9 9 6 2 : : % f.",
"f.f.U U f.f.f.f.f.f.S C C N N N f.f.f.f.f.f.0 8 6 2 2 2 % o f.f.",
"f.f.U f.f.f.f.f.f.Z C N N j j f.f.f.f.f.f.8 6 6 6 % % % o o f.f.",
"f.f.f.f.f.f.f.f.f.N N N j h h f.f.f.f.f.6 6 : : % % O . o f.f.f.",
"f.f.f.f.f.f.f.f.N j h h h y f.f.f.f.f.f.2 2 % % % + . . . f.f.f.",
"f.f.f.f.f.f.f.N h h h y u u f.f.f.f.f.2 % % % o . + . . f.f.f.f.",
"f.f.f.f.f.f.f.h h h h 9 u 6 f.f.f.f.f.% + + O o . . . o f.f.f.f.",
"f.f.f.f.f.f.h h y y 9 9 6 6 6 % 2 % % X X X o O % + . f.f.f.f.f.",
"f.f.f.f.f.f.y y 9 9 9 9 3 2 % % o O o + < r c c < o f.f.f.f.f.f.",
"f.f.f.f.f.y y f.8 9 6 % % 2 % % 1 z P ^ / / ! < . f.f.f.f.f.f.f.",
"f.f.f.f.f.f.f.f.f.f.2 % % % < r l v Q ~ b r o f.f.f.f.f.f.f.f.f.",
"f.f.f.f.f.f.f.f.f.f.f.f.f.f.f.f.f.f.f.f.f.f.f.f.f.f.f.f.f.f.f.f."
};
