/* XPM */
static char *_39ff5333ec445c2bfc49ae32fbc54f7[] = {
/* columns rows colors chars-per-pixel */
"128 128 63 1 ",
"  c #2D76B2",
". c #2F78B3",
"X c #347CB5",
"o c #397EB6",
"O c #357FB8",
"+ c #3580B7",
"@ c #3C80B7",
"# c #3682B9",
"$ c #3886BC",
"% c #398ABE",
"& c #4385BA",
"* c #4B8ABD",
"= c #518EBF",
"- c #3B8EC1",
"; c #3D93C4",
": c #3F98C7",
"> c #3F99C8",
", c #538FC0",
"< c #419DCB",
"1 c #5691C1",
"2 c #5B94C3",
"3 c #6097C5",
"4 c #649AC6",
"5 c #689DC7",
"6 c #6B9EC8",
"7 c #43A2CE",
"8 c #45A6D0",
"9 c #46ABD3",
"0 c #48AFD6",
"q c #4BB1D7",
"w c #4FB2D8",
"e c #53B4D9",
"r c #5AB7DA",
"t c #5EB9DB",
"y c #6DA0C9",
"u c #73A4CB",
"i c #79A7CD",
"p c #7BA9CE",
"a c #7FACD0",
"s c #64BBDC",
"d c #6BBEDE",
"f c #6FC0DF",
"g c #71C1DF",
"h c #75C3E0",
"j c #7CC6E2",
"k c #82ADD1",
"l c #86B0D3",
"z c #8CB4D5",
"x c #91B7D7",
"c c #94B9D8",
"v c #99BCD9",
"b c #9EC0DB",
"n c #A0C1DC",
"m c #80C7E3",
"M c #84C9E3",
"N c #8BCCE5",
"B c #90CEE6",
"V c #95D1E7",
"C c #9BD3E8",
"Z c #A3D7EB",
"A c #A6D8EB",
"S c #AADAEC",
"D c None",
/* pixels */
"DDDDDDDDDDDDDDDDDDDDDDDDDDDDDDDDDDDDDDDDDDDDDDDDDDDDDDDDDDDDDDDDDDDDDDDDDDDDDDDDDDDDDDDDDDDDDDDDDDDDDDDDDDDDDDDDDDDDDDDDDDDDDDDD",
"DDDDDDDDDDDDDDDDDDDDDDDDDDDDDDDDDDDDDDDDDDDDDDDDDDDDDDDDDDDDDDDDDDDDDDDDDDDDDDDDDDDDDDDDDDDDDDDDDDDDDDDDDDDDDDDDDDDDDDDDDDDDDDDD",
"DDDDDDDDDDDDDDDDDDDDDDDDDDDDDDDDDDDDDDDDDDDDDDDDDDDDDDDDDDDDDDDDDDDDDDDDDDDDDDDDDDDDDDDDDDDDDDDDDDDDDDDDDDDDDDD0DDDDDDDDDDDDDDDD",
"DDDDDDDDDDDDDDDDDDDDDDDDDDDDDDDDDDDDDDDDDDDDD000q0q0q00q0000q0q0q00q0000q0q0q00q0DDDDDDDDDDDDDDDDDDDDDDDDDDDDD0DDDDDDDDDDDDDDDDD",
"DDDDDDDDDDDDDDDDDDDDDDDDDDDDDDDDDDDDDDDDDq00000000000000000000000q00000000000000000q0DDDDDDDDDDDDDDDDDDDDDDD09qDDDDDDDDDDDDDDDDD",
"DDDDDDDDDDDDDDDDDDDDDDDDDDDDDDDDDDDDDD00000000009900099000000000000000000000000000000000DDDDDDDDDDDDDDDDDDD099DDDDDDDDDDDDDDDDDD",
"DDDDDDDDDDDDDDDDDDDDDDDDDDDDDDDDDDD0q0000000000ersfhhhddfffdssstrrrreeewwqq0000000000000000DDDDDDDDDDDDDDD0999DDDDDDDDDDDDDDDDDD",
"DDDDDDDDDDDDDDDDDDDDDDDDDDDDDDDDD0000000000edMVZSSAZZCVBNNjjjhfffsstrewwq00000000000000000000DDDDDDDDDDD99999DDDDDDDDDDDDDDDDDDD",
"DDDDDDDDDDDDDDDDDDDDDDDDDDDDDDD000000000efBASAZCVBNMjjjhhffssttrewq00000000000000000000000009qwDDDDDDDD999999DDDDDDDDDDDDDDDDDDD",
"DDDDDDDDDDDDDDDDDDDDDDDDDDDDDD00000000tjCZZCVNMMjjjhfffdsrreeq000000000000000000000000000000q099DDDDDD999999DDDDDDDDDDDDDDDDDDDD",
"DDDDDDDDDDDDDDDDDDDDDDDDDDDD00000000ejCCBMMjjjhhfddstrrwwqq000000000000000000000000000000000909009DDD999999DDDDDDDDDDDDDDDDDDDDD",
"DDDDDDDDDDDDDDDDDDDDDDDDDDD0000000wjNNjjjjhfddstrrewq000000000000000000000000000000000000990099q90999999999DDDDDDDDDDDDDDDDDDDDD",
"DDDDDDDDDDDDDDDDDDDDDDDDDD0000000tjjjhffdsttreeqq0000000000000000000000000000000000009q9009099999999998989DDDDDDDDDDDDDDDDDDDDDD",
"DDDDDDDDDDDDDDDDDDDDDDDDDq00000wdjhdsttreewq000000000000000000000000000000000000000000009099q9999999989879DDDDDDDDDDDDDDDDDDDDDD",
"DDDDDDDDDDDDDDDDDDDDDDD0000000edstteeeqq00000000000000000000000000000000000000000000090990909998999898999DDDDDDDDDDDDDDDDDDDDDDD",
"DDDDDDDDDDDDDDDDDDDDDD0000000erewwq000000000000000000000000000000000000000000000009090099999999q989989797DDDDDDDDDDDDDDDDDDDDDDD",
"DDDDDDDDDDDDDDDDDDDDDD000000qqq0000000000000000000000000000000000000000000000000090900999999999899899888DDDDDDDDDDDDDDDDDDDDDDDD",
"DDDDDDDDDDDDDDDDDDDDD00q00000000000000000000000000000000000000000000000000000009909099999q8998988898889DDDDDDDDDDDDDDDDDDDDDDDDD",
"DDDDDDDDDDDDDDDDDDDD00000000000000000000000000000000000000000q0000000000q000900009099999989989998898888DDDDDDDDDDDDDDDDDDDDDDDDD",
"DDDDDDDDDDDDDDDDDDD0000000000000000000000000000000q000000000000000000000900909999999999999899888988888DDDDDDDDDDDDDDDDDDDDDDDDDD",
"DDDDDDDDDDDDDDDDDDD0q00000000000000000000000000000000q00000000000q0q0000009090999999999989889888888888DDDDDDDDDDDDDDDDDDDDDDDDDD",
"DDDDDDDDDDDDDDDDDD00000000000000000000000000000000000DDDDDDDDDDDDDDDDDD09q099999999999999998889888888DDDDDDDDDDDDDDDDDDDDDDDDDDD",
"DDDDDDDDDDDDDDDDD000000000000000000000000000000000000DDDDDDDDDDDDDDDDDDDDDD00999999887799898888888878DDDDDDDDDDDDDDDDDDDDDDDDDDD",
"DDDDDDDDDDDDDDDDD00000000000000000000000000000000000DDDDDDDDDDDDDDDDDDDDDDD9999999989998888888877887DDDDDDDDDDDDDDDDDDDDDDDDDDDD",
"DDDDDDDDDDDDDDDD000000000000000000000000000000000000DDDDDDDDDDDDDDDDDDDDDD9999898989898898888888877DDDDDDDDDDDDDDDDDDDDDDDDDDDDD",
"DDDDDDDDDDDDDDDD0000000000000000000000000000000000qDDDDDDDDDDDDDDDDDDDDDDD9999989888888888887887788DDDDDDDDDDDDDDDDDDDDDDDDDDDDD",
"DDDDDDDDDDDDDDD000000000000000000000000000000000000DDDDDDDDDDDDDDDDDDDDDD9998998899888888888787887DDDDDDDDDDDDDDDDDDDDDDDDDDDDDD",
"DDDDDDDDDDDDDDq00000000000000000000000000000000000DDDDDDDDDDDDDDDDDDDDDDD9989989988888888887878777DDDDDDDDDDDDDDDDDDDDDDDDDDDDDD",
"DDDDDDDDDDDDDD00000000000000000000000000000000000DDDDDDDDDDDDDDDDDDDDDDD9989888888888887778877777DDDDDDDDDDDDDDDDDDDDDDDDDDDDDDD",
"DDDDDDDDDDDDD00000000000000000000000000000000q000DDDDDDDDDDDDDDDDDDDDDD9989898988878878778777777DDDDDDDDDDDDDDDDDDDDDDDDDDDDDDDD",
"DDDDDDDDDDDDDq0000000000000000000000000000000000DDDDDDDDDDDDDDDDDDDDDDD9898888888888887878777777DDDDDDDDDDDDDDDDDDDDDDDDDDDDDDDD",
"DDDDDDDDDDDD000000000000000000000000000000000000DDDDDDDDDDDDDDDDDDDDDD0988898888888878877777777DDDDDDDDDDDDDDDDDDDDDDDDDDDDDDDDD",
"DDDDDDDDDDDDq0000000000000000000000000000000000DDDDDDDDDDDDDDDDDDDDDDD9789988888887887777777777DDDDDDDDDDDDDDDDDDDDDDDDDDDDDDDDD",
"DDDDDDDDDDD0000000000000q000000000000000000000DDDDDDDDDDDDDDDDDDDDDDD8898877887877877777777<<7DDDDDDDDDDDDDDDDDDDDDDDDDDDDDDDDDD",
"DDDDDDDDDDq00000000000000000000000000000000000DDDDDDDDDDDDDDDDDDDDDDD88887887777777777777<777<DDDDDDDDDDDDDDDDDDDDDDDDDDDDDDDDDD",
"DDDDDDDDDD00000000000000000000000000000000000DDDDDDDDDDDDDDDDDDDDDDD98888888788878777777777<7DDDDDDDDDDDDDDDDDDDDDDD>DDDDDDDDDDD",
"DDDDDDDDD000000000000000000000000000000090000DDDDDDDDDDDDDDDDDDDDDD8888888788777777777<7<7<<DDDDDDDDDDDDDDDDDDDDDDD<;<DDDDDDDDDD",
"DDDDDDDDD00000000000000000000000000000900090DDDDDDDDDDDDDDDDDDDDDDD888877787777777<7777<7<<7DDDDDDDDDDDDDDDDDDDDDD;<<;DDDDDDDDDD",
"DDDDDDDDq00000000000000000000000000000000999DDDDDDDDDDDDDDDDDDDDDD8887877877777777777<7<<77DDDDDDDDDDDDDDDDDDDDDDD<<;;;DDDDDDDDD",
"DDDDDDDD00000000000000000000000000000009090DDDDDDDDDDDDDDDDDDDDDDD878778777777<7<77<<7<7<<<DDDDDDDDDDDDDDDDDDDDDD<;;;<<DDDDDDDDD",
"DDDDDDD000000000000000000000000q0009009999DDDDDDDDDDDDDDDDDDDDDDD8787877777777777<7<<<7<<<DDDDDDDDDDDDDDDDDDDDDDD>;<;<>;DDDDDDDD",
"DDDDDDq00000000000000000000000099090990099DDDDDDDDDDDDDDDDDDDDDD87887777777<7<<7<7<77<<<<<DDDDDDDDDDDDDDDDDDDDDD:;:;;;;>DDDDDDDD",
"DDDDDD00000000000000000000q009q0009099999DDDDDDDDDDDDDDDDDDDDDDD7877777777777<77<<7<<<<<<DDDDDDDDDDDDDDDDDDDDDDD;>;::;;;;DDDDDDD",
"DDDDDq0000000000000000000090009q099909999DDDDDDDDDDDDDDDDDDDDDD77777777777<<<7<<7<<<<<<<DDDDDDDDDDDDDDDDDDDDDDD;:;;<;;;;;;DDDDDD",
"DDDDD0000000000000000000090099q999q99998DDDDDDDDDDDDDDDDDDDDDDD877777<7777<77<7<<<<<<<<<DDDDDDDDDDDDDDDDDDDDDD;;;>;;;;;;;;DDDDDD",
"DDDD000000000000000000000009q99999999999DDDDDDDDDDDDDDDDDDDDDD777777777<<7<7<<<<<<<<<<<DDDDDDDDDDDDDDDDDDDDDDD<;;;>;;;;;;;;DDDDD",
"DDDD000000000000000090000090q89q9999989DDDDDDDDDDDDDDDDDDDDDDD777<7777<77<<<<<<<<<<<><<DDDDDDDDDDDDDDDDDDDDDD<;;;;;;;;;;;-;DDDDD",
"DDDq0000000000000000009099999999999999DDDDDDDDDDDDDDDDDDDDDDD<7777<7<7<<<7<<7<<<<<<><<DDDDDDDDDDDDDDDDDDDDDDD;;;;;;;;;;-;;;;DDDD",
"DDD00000000000000009090999999999899989DDDDDDDDDDDDDDDDDDDDDD77777<7<7<<7<<<<<<<<<<<:<>DDDDDDDDDDDDDDDDDDDDDD;;;;;;;;;-;;----DDDD",
"DD0000000000000009099009q999998989899DDDDDDDDDDDDDDDDDDDDDDD777<<77<<7<<<<<<<<><;<><<DDDDDDDDDDDDDDDDDDDDDDD;;;;;;;;;;-;-;;-;DDD",
"DDq00000000009q0909009999999999998999DDDDDDDDDDDDDDDDDDDDDD7<7<7<7<7<<<<<<<<><<><<><DDDDDDDDDDDDDDDDDDDDDDD;;;;;;;;;;--;;;%;-DDD",
"DD0000000000000909909999989998898987DDDDDDDDDDDDDDDDDDDDDDD77<7<7<<<<<<<<<<><<><<;<>DDDDDDDDDDDDDDDDDDDDDD;;;;;;-;-;-;-;%-;%--DD",
"D00000000000999999999999998999989799DDDDDDDDDDDDDDDDDDDDDD77<77<<<<<<<<<<<<>><><<::DDDDDDDDDDDDDDDDDDDDDDD;;;;-;;-;--;;%------DD",
"D00000009q09qq9q9999999998988889997DDDDDDDDDDDDDDDDDDDDDDD<<7<<<<<<<<<<>:<:<<:<;:<>DDDDDDDDDDDDDDDDDDDDDD;;;;;;--;-----------%DD",
"D000000009q99999999999999989888878DDDDDDDDDDDDDDDDDDDDDDDDDDDDDDDDD<<<<<<:<><>:>:;DDDDDDDDDDDDDDDDDDDDDDD;;-;--;---;-----%-%-%%D",
"D00000000999q999999998998988988788DDDDDDDDDDDDDDDDDDDDDDDDDDDDDDDDDDDDDDDDDDDD>><DDDDDDDDDDDDDDDDDDDDDDD;;-;-;---;----------%%-D",
"0000009999q999998999q888898897897DDDDDDDDDDDDDDDDDDDDDDDDDDDDDDDDDDDDDDDDDDDDDDDDDDDDDDDDDDDDDDDDDDDDDDD;-;;---;----%-%--%%-%%%D",
"000990900999999998988889888879878DDDDDDDDDDDDDDDDDDDDDDDDDDDDDDDDDDDDDDDDDDDDDDDDDDDDDDDDDDDDDDDDDDDDDD;-;---;-;---%----%%-%%%%D",
"00090999999999998989898888888788DDDDDDDDDDDDDDDDDDDDDDDDDDDDDDDDDDDDDDDDDDDDDDDDDDDDDDDDDDDDDDDDDDDDDD-;;--;---%-----%%%-%%%%%%%",
"9099999999998888898888888888887DDDDDDDDDDDDDDDDDDDDDDDDDDDDDDDDDDDDDDDDDDDDDDDDDDDDDDDDDDDDDDDDDDDDDDD;----------%-%-%-%%%%%%%%%",
"0990999999989989988988878888778DDDDDDDDDDDDDDDDDDDDDDDDDDDDDDDDDDDDDDDDDDDDDDDDDDDDDDDDDDDDDDDDDDDDDD;------------%%%%%%%%%%%$%$",
"999999999998989888888888787878DDDDDDDDDDDDDDDDDDDDDDDDDDDDDDDDDDDDDDDDDDDDDDDDDDDDDDDDDDDDDDDDDDDDDDD--------%-%%%%-%%%%%%$%%%%$",
"999999999989788988888888887877DDDDDDDDDDDDDDDDDDDDDDDDDDDDDDDDDDDDDDDDDDDDDDDDDDDDDDDDDDDDDDDDDDDDDD----%-%-%%%--%%%$%%%%$$$%%#%",
"99999898889898978888888777777DDDDDDDDDDDDDDDDDDDDDDDDDDDDDDDDDDDDDDDDDDDDDDDDDDDDDDDDDDDDDDDDDDDDDD---------%-%-%%%%%%%%%$%%##%#",
"99998998988898887888787877777DDDDDDDDDDDDDDDDDDDDDDDDDDDDDDDDDDDDDDDDDDDDDDDDDDDDDDDDDDDDDDDDDDDDDD------$--$--#-$$-%$%%$$$$$$$#",
"9988998988998888887788777777DDDDDDDDDDDDDDDDDDDDDDDDDDDDDDDDDDDDDDDDDDDDDDDDDDDDDDDDDDDDDDDDDDDDDD-%-%-%---$-$-#$--#%$$$$$$$$$$$",
"898988888887788787787777777DDDDDDDDDDDDDDDDDDDDDDDDDDDDDDDDDDDDDDDDDDDDDDDDDDDDDDDDDDDDDDDDDDDDDDD----%%-$-#$-#-$-$$%$$$$$$$#$#$",
"989898888888878778877777777DDDDDDDDDDDDDDDDDDDDDDDDDDDDDDDDDDDDDDDDDDDDDDDDDDDDDDDDDDDDDDDDDDDDDD-%-%%%--$---$-$$$$$$$$$$$#$$$##",
"89888888888777887777777<77DDDDDDDDDDDDDDDDDDDDDDDDDDDDDDDDDDDDDDDDDDDDDDDDDDDDDDDDDDDDDDDDDDDDDDD-%%%%%%-$-$$-$-$$$$$$$$#$$$#$##",
"888888888788877777777<777<DDDDDDDDDDDDDDDDDDDDDDDDDDDDDDDDDDDDDDDDDDDDDDDDDDDDDDDDDDDDDDDDDDDDDD%%---%%%#-#-$$$$%$$$$$$$$$####$#",
"D8888887887887777777777<7DDDDDDDDDDDDDDDDDDDDDDDDDDDDDDDDDDDDDDDDDDDDDDDDDDDDDDDDDDDDDDDDDDDDDD--%%%%%%%-$-#$$$$$$$$$$##########",
"D88878887777777777777<77<DDDDDDDDDDDDDDDDDDDDDDDDDDDDDDDDDDDDDDDDDDDDDDDDDDDDDDDDDDDDDDDDDDDDDD%%%%%%%%%#-#-$$$$$$$#$#$#########",
"D878887877777777<77<77<7DDDDDDDDDDDDDDDDDDDDDDD<<DDDDDDDDDDDDDDDDDDDDDDDDDDDDDDDDDDDDDDDDDDDDD-%%%%%%$%%$$%$$$$$$$$#$$##$###+#+D",
"D8887777777777<77<7<<<<DDDDDDDDDDDDDDDDDDDDDDD;><;;:>;;>;;;DDDDDDDDDDDDDDDDDDDDDDDDDDDDDDDDDDD$-%%%%%$$$$$$$$$$$#$#$########+##D",
"DD887877777777777<<7<7<DDDDDDDDDDDDDDDDDDDDDD;<:;;>;;<;<<;;;;;;;;;;;;;DDDDDDDDDDDDDDDDDDDDDDD%%$%%%%$$$$$$$$$##$#$$####+#######D",
"DD777777777<7<<7<77<<<DDDDDDDDDDDDDDDDDDDDDDD<;>;>;<;;;;;;;;;;<;;;-;;-DDDDDDDDDDDDDDDDDDDDDDD%%%%%#%$$$$$$$$$$#$##########++OO#D",
"DD7777777<77777<<7<<<7DDDDDDDDDDDDDDDDDDDDDD:::;;;;>;;;:;;;;;;;;-;;-;DDDDDDDDDDDDDDDDDDDDDDD-$$%%#%%#%$$$$$$+$########O#++OOOODD",
"DDD7777777<7<<<7<<<<<DDDDDDDDDDDDDDDDDDDDDDD;>;<<<;;;>;;;;;;;-;;;--;-DDDDDDDDDDDDDDDDDDDDDD%$%%$$%#$%#%#$$$+$+$#####O#+#+OOOOODD",
"DDD7<7<77<7<7<<<<7<<<DDDDDDDDDDDDDDDDDDDDDD;:;;;;;>;;;;;;;;;;-;-;;-;DDDDDDDDDDDDDDDDDDDDDDD%$$$$#$%%$$#$$+$$#$##+###+#++++OOOODD",
"DDDD777<7<<7<<<<<<<<DDDDDDDDDDDDDDDDDDDDDDD>;::;;;;;;;;;;;-;-;-;----DDDDDDDDDDDDDDDDDDDDDD$%$$$$%$####$#+$+$#+#+###+#++OO+OOODDD",
"DDDD7<77<<<7<<<<<<<DDDDDDDDDDDDDDDDDDDDDDD>;;:;;;;;;;;;-;;-;;-;----DDDDDDDDDDDDDDDDDDDDDDD%%#%$$$$$$#$$####+####O#o#+++OOXOXXDDD",
"DDDDD7<<7<<<<<<<<<>DDDDDDDDDDDDDDDDDDDDDD;;;:;;;;;;;;;;;;-;---%;--DDDDDDDDDDDDDDDDDDDDDDD#%##%%##$############++O+OOXO+O+XXODDDD",
"DDDDD<7<<<<<<<<<<:DDDDDDDDDDDDDDDDDDDDDDD:;:;;;;;;-;-;;--;---;-;--DDDDDDDDDDDDDDDDDDDDDDD$$$$%#$$#$##$######++++OOOO+O+XOOXODDDD",
"DDDDDD<<<<<<<><><<DDDDDDDDDDDDDDDDDDDDDD;;;;:;;;;;;;;--;;;%;-----DDDDDDDDDDDDDDDDDDDDDDD%%#%##$#$###########o#++XOOO+XO+XXXDDDDD",
"DDDDDD<<<<<><><><DDDDDDDDDDDDDDDDDDDDDDD;;;;;;;;;;-;;;;-%;-------DDDDDDDDDDDDDDDDDDDDDD%$$###$$#########O+O#++OX+O+X+XXXXXODDDDD",
"DDDDDDD<<<<<><><DDDDDDDDDDDDDDDDDDDDDDD;;;;;;;;;-;;------%-;--%-DDDDDDDDDDDDDDDDDDDDDDD$#$$#$#########O+#OOOOOOOOXXOXOOXXODDDDDD",
"DDDDDDD<><<><<<<DDDDDDDDDDDDDDDDDDDDDDD;;;;;;-;--;;---;-;;%%%---DDDDDDDDDDDDDDDDDDDDDD##$##$####+####++++OOO+o+XXX+XXXXXXXDDDDDD",
"DDDDDDDD<:<<;<;DDDDDDDDDDDDDDDDDDDDDDD;;;;;-;;;-;--;----%%---%%DDDDDDDDDDDDDDDDDDDDDDD#%#$#########+++++OOOOXOOXOXXXXXXXXDDDDDDD",
"DDDDDDDDD<<::>>DDDDDDDDDDDDDDDDDDDDDD;;;;;;;--;---;-;---%---%-DDDDDDDDDDDDDDDDDDDDDDD$#$###$##+##O+++#OOOOOOXOXOXXXXXXXXXDDDDDDD",
"DDDDDDDDD;>>>>DDDDDDDDDDDDDDDDDDDDDDD;-;;--;-;--;-%--%%---%%%%DDDDDDDDDDDDDDDDDDDDDD#$#########O+O++o+OOoXXXXXXXXXXXXX.XDDDDDDDD",
"DDDDDDDDDD<>::DDDDDDDDDDDDDDDDDDDDDD;;;;-;----;-----%-%-%%%--DDDDDDDDDDDDDDDDDDDDDDD#########+++++OOXOOOXXoXOXXXXXX .XXDDDDDDDDD",
"DDDDDDDDDD;<:DDDDDDDDDDDDDDDDDDDDDDD;--;;--;;-----%----%%-%%%DDDDDDDDDDDDDDDDDDDDDD######O#O#o#+OOOOOOXXXoXXXXXXXXXXXXXDDDDDDDDD",
"DDDDDDDDDDD:DDDDDDDDDDDDDDDDDDDDDDD;;-;---;----%%----%%%-%%%DDDDDDDDDDDDDDDDDDDDDDD#####++++#O++O+OOXXX+XXXX.o..XX.XX.DDDDDDDDDD",
"DDDDDDDDDDDDDDDDDDDDDDDDDDDDDDDDDD;--;--;---------%%%-%%%%%%DDDDDDDDDDDDDDDDDDDDDD#####++#++OO+XX+X+XOOXXoo...oo.X.XXXDDDDDDDDDD",
"DDDDDDDDDDDDDDDDDDDDDDDDDDDDDDDDDD-;;--;---%%--%%-%-%%%%%%%DDDDDDDDDDDDDDDDDDDDDDD##O#O+oOOOOOXOX+XXXXXXo...o.o..oX.XDDDDDDDDDDD",
"DDDDDDDDDDDDDDDDDDDDDDDDDDDDDDDDD--------%-----%%-%%%%%%%%DDDDDDDDDDDDDDDDDDDDDDD###+#OO#OOOOOXOOXOXXXXX..oo o..o..oDDDDDDDDDDDD",
"DDDDDDDDDDDDDDDDDDDDDDDDDDDDDDDDD-;-----%-%-%-%%-%%%$%%$%%DDDDDDDDDDDDDDDDDDDDDD##++++++OXXoXXXoXXXXXXX.o o o  .o o DDDDDDDDDDDD",
"DDDDDDDDDDDDDDDDDDDDDDDDDDDDDDDD-;---------%%-%-%%%%%%%%%DDDDDDDDDDDDDDDDDDDDDDD+#+++++XXXoooXXXXXXXXXXX o oo.o  ooDDDDDDDDDDDDD",
"DDDDDDDDDDDDDDDDDDDDDDDDDDDDDDDD--------%-%%%%%%%%%$%$$$%DDDDDDDDDDDDDDDDDDDDDD+++OXOOOOoOXX.oXXXXXX.XXXo  o o oXo.DDDDDDDDDDDDD",
"DDDDDDDDDDDDDDDDDDDDDDDDDDDDDDD---$--%%%-%%-%%$%%$%%$$$$DDDDDDDDDDDDDDDDDDDDDDDO#oOOOO+XXXo.o.XXXXXXX.X.. o o o XXDDDDDDDDDDDDDD",
"DDDDDDDDDDDDDDDDDDDDDDDDDDDDDD----$----$%%%%%%%%$-$$$$%DDDDDDDDDDDDDDDDDDDDDDD#OOOOOOXOOOXXXXo XXX XXX.Xo..oXXX XXDDDDDDDDDDDDDD",
"DDDDDDDDDDDDDDDDDDDDDDDDDDDDDD------$$--%%%%%$%%$$$$$$$DDDDDDDDDDDDDDDDDDDDDDDOOOOOXXXXXXXXXXXXX  oXXXX..oo ..XXXDDDDDDDDDDDDDDD",
"DDDDDDDDDDDDDDDDDDDDDDDDDDDDD-%-------$-%%%%%%%%$$$$$$DDDDDDDDDDDDDDDDDDDDDDDOOO+XXXXXXXXXXX oo o X.XX.o....X.XXDDDDDDDDDDDDDDDD",
"DDDDDDDDDDDDDDDDDDDDDDDDDDDDD--%$-$-$$-$%%%%#%$#$$$$$%DDDDDDDDDDDDDDDDDDDDDD++XXOXOXXXXXXXXX o o oXXX.X.o.oo.XXoDDDDDDDDDDDDDDDD",
"DDDDDDDDDDDDDDDDDDDDDDDDDDDD--%%%-%%%%-$%%$%%$%$$$$$$DDDDDDDDDDDDDDDDDDDDDDDOOXOXXXXXXXX o o oo o o o o  o oX.XDDDDDDDDDDDDDDDDD",
"DDDDDDDDDDDDDDDDDDDDDDDDDDDD%%%-%%%$$%$-$$%$$%#$$$$$$DDDDDDDDDDDDDDDDDDDDDDOXOXOXXXXXXXXo o o  o o o o oo o XX.DDDDDDDDDDDDDDDDD",
"DDDDDDDDDDDDDDDDDDDDDDDDDDD%%-%%$%%%%%$$%#%$#%$#+$$$$##$DDDDDDDDDDDDDDDDDDDXXXXXXXXXXXX. oo   o o o o XX o oXXDDDDDDDDDDDDDDDDDD",
"DDDDDDDDDDDDDDDDDDDDDDDDDD%-%%%%%%%%%$$$$$#%$#$$$$$+###+#####+#+#OOOOOOOoooXOXXXXXXX.X.Xo  o o o o X o  o o oXDDDDDDDDDDDDDDDDDD",
"DDDDDDDDDDDDDDDDDDDDDDDDDD%%%%%%%$%$$%%#%$$#$#$#$+#$#+#####++++++X++OOXXXXXXXXXoXXXX..XXo o  o Xo o XX o oo oDDDDDDDDDDDDDDDDDDD",
"DDDDDDDDDDDDDDDDDDDDDDDDD%%%%%%%%$#%#%#%#$$$$##$+$######O#+OO#XO+OOXOXXOXXXXXo  X.X.o.XX o oo oX o oXXo   o@DDDDDDDDDDDDDDDDDDDD",
"DDDDDDDDDDDDDDDDDDDDDDDDD%%%%%%%%%%%%$%#%####$##$+#####+#O#OOOOOOOXOXOXXXXoXX  oXX.oXXXXo  o oX oX  XX oo oDDDDDDDDDDDDDDDDDDDDD",
"DDDDDDDDDDDDDDDDDDDDDDDD%%%$%$%##%##%#$##$#$$###+####+OOOOOOOOOXXXXOXXXXXXXX oXX X.o..X. o  o XX Xoo Xo  o DDDDDDDDDDDDDDDDDDDDD",
"DDDDDDDDDDDDDDDDDDDDDDDD%%%$$$$$#%%$#$#$###$#$######+++++X+XoXXoXXXXXXXoX.XX X o.o..o..o. .XXooo@*&XXXX.XXDDDDDDDDDDDDDDDDDDDDDD",
"DDDDDDDDDDDDDDDDDDDDDDD%$%$%$$$$$%##$#$##$###++##+++#++X+OOOXXXoOXXXXXX.o.XXXXo o..oo..oXoo@&&&==&.XXXXXXDDDDDDDDDDDDDDDDDDDDDDD",
"DDDDDDDDDDDDDDDDDDDDDD%%%$#%$$$$##%###%#######+++o+++++OOOOXOXXXXXXXXXXX..XXo  o.XX.ooo&&*==1242&.X..XXXDDDDDDDDDDDDDDDDDDDDDDDD",
"DDDDDDDDDDDDDDDDDDDDDD$%#%%#$#$$%##$##########++O#OOOOO+XXXXOXXXXXXX.XXX.o.X o Xo@@&&*==2335yu2o.o.X.XDDDDDDDDDDDDDDDDDDDDDDDDDD",
"DDDDDDDDDDDDDDDDDDDDD%%#$$%%$$#$#$#########O#O++OOOO+OXXOOXXXXo.XXXX.XX.XXXoo@&&*==223556uik6& Xoo.oXDDDDDDDDDDDDDDDDDDDDDDDDDDD",
"DDDDDDDDDDDDDDDDDDDDD##%$$##DD$#$####+###O+#+OOOOOOOX+XOXXXXXXXXXX.X.XXo@@&**122336yuuiklzi=o X  .o DDDDDDDDDDDDDDDDDDDDDDDDDDDD",
"DDDDDDDDDDDDDDDDDDDD%%#%$#DDDDDD#######O+OO+#OOOO+XXOXXXXXXXX.X.XXoo&&**=122456yiikklxvck=   o.XoXDDDDDDDDDDDDDDDDDDDDDDDDDDDDDD",
"DDDDDDDDDDDDDDDDDDD%%#$##DDDDDDDD#+####+O#+OOOOXXXOXXXXXXXXXXXo&&&**==3346yyiikllccbbzy&  o.o XXXDDDDDDDDDDDDDDDDDDDDDDDDDDDDDDD",
"DDDDDDDDDDDDDDDDDDD%$$#$DDDDDDDDDDD##O+#++O+OOOOX+XXXXXooo&&&*==3445yuipkllxcvbnnvl5*X .XXXXXXXDDDDDDDDDDDDDDDDDDDDDDDDDDDDDDDDD",
"DDDDDDDDDDDDDDDDDD$##$DDDDDDDDDDDDDDDO+O++XOOXXXOXXXXoo@@@&***====2334456yuuuy42*o.  XXXXX.XXDDDDDDDDDDDDDDDDDDDDDDDDDDDDDDDDDDD",
"DDDDDDDDDDDDDDDDDD%#$DDDDDDDDDDDDDDDDDDO+OOXXXXOXXXXX.XXXX.............          .XXX.XXX.XDDDDDDDDDDDDDDDDDDDDDDDDDDDDDDDDDDDDD",
"DDDDDDDDDDDDDDDDD###DDDDDDDDDDDDDDDDDDDDDDXXOXXOXXXXXX.X.XXXXXXXXX.XXXXXXX o oo XXXX.XX.DDDDDDDDDDDDDDDDDDDDDDDDDDDDDDDDDDDDDDDD",
"DDDDDDDDDDDDDDDDD$#DDDDDDDDDDDDDDDDDDDDDDDDDDDDXXXXXXXXXXXXXXXXXXoXXXXXXXXoo oo.XXXDDDDDDDDDDDDDDDDDDDDDDDDDDDDDDDDDDDDDDDDDDDDD",
"DDDDDDDDDDDDDDDD#DDDDDDDDDDDDDDDDDDDDDDDDDDDDDDDDDDDDDDDDDDDDDDDDDDDDDDDDDDDDDDDDDDDDDDDDDDDDDDDDDDDDDDDDDDDDDDDDDDDDDDDDDDDDDDD",
"DDDDDDDDDDDDDDDDDDDDDDDDDDDDDDDDDDDDDDDDDDDDDDDDDDDDDDDDDDDDDDDDDDDDDDDDDDDDDDDDDDDDDDDDDDDDDDDDDDDDDDDDDDDDDDDDDDDDDDDDDDDDDDDD",
"DDDDDDDDDDDDDDDDDDDDDDDDDDDDDDDDDDDDDDDDDDDDDDDDDDDDDDDDDDDDDDDDDDDDDDDDDDDDDDDDDDDDDDDDDDDDDDDDDDDDDDDDDDDDDDDDDDDDDDDDDDDDDDDD"
};
