/* XPM */
static char *c9e25952cc934f93c1212fef2e863da2[] = {
/* columns rows colors chars-per-pixel */
"64 64 218 2 ",
"   c #2C75B1",
".  c #2C76B2",
"X  c #2E77B2",
"o  c #2F77B2",
"O  c #3078B3",
"+  c #3179B3",
"@  c #3279B3",
"#  c #3179B4",
"$  c #3279B4",
"%  c #327AB4",
"&  c #337AB4",
"*  c #337BB4",
"=  c #337BB5",
"-  c #347AB4",
";  c #347BB4",
":  c #347BB5",
">  c #357BB5",
",  c #347CB5",
"<  c #357CB5",
"1  c #367CB5",
"2  c #377CB5",
"3  c #377DB5",
"4  c #347CB6",
"5  c #347DB6",
"6  c #377DB6",
"7  c #347EB6",
"8  c #357EB6",
"9  c #357EB7",
"0  c #357FB7",
"q  c #397EB6",
"w  c #3A7EB6",
"e  c #3A7FB7",
"r  c #357FB8",
"t  c #3B80B7",
"y  c #3D80B7",
"u  c #3580B8",
"i  c #3680B8",
"p  c #3681B8",
"a  c #3681B9",
"s  c #3682B9",
"d  c #3683B9",
"f  c #3683BA",
"g  c #3783BA",
"h  c #3784BA",
"j  c #3784BB",
"k  c #3785BB",
"l  c #3D81B8",
"z  c #3E81B8",
"x  c #3F82B9",
"c  c #3885BB",
"v  c #3886BB",
"b  c #3886BC",
"n  c #3887BC",
"m  c #3887BD",
"M  c #3888BD",
"N  c #3988BD",
"B  c #3989BD",
"V  c #3989BE",
"C  c #398ABE",
"Z  c #398ABF",
"A  c #3A8ABF",
"S  c #3A8BBF",
"D  c #3A8CBF",
"F  c #4183B9",
"G  c #4485BA",
"H  c #4686BB",
"J  c #4787BB",
"K  c #4787BC",
"L  c #4888BC",
"P  c #4C8ABD",
"I  c #4E8CBE",
"U  c #4F8CBE",
"Y  c #508DBF",
"T  c #3A8CC0",
"R  c #3A8DC0",
"E  c #3B8DC0",
"W  c #3B8DC1",
"Q  c #3B8EC1",
"!  c #3B8FC1",
"~  c #3B8FC2",
"^  c #3C8FC2",
"/  c #3C90C2",
"(  c #3C91C2",
")  c #3C91C3",
"_  c #3C92C3",
"`  c #3D92C3",
"'  c #3D92C4",
"]  c #3D93C4",
"[  c #3D94C4",
"{  c #3D94C5",
"}  c #3D95C5",
"|  c #3E95C5",
" . c #3E95C6",
".. c #3E96C6",
"X. c #3E97C6",
"o. c #3F97C7",
"O. c #3F98C7",
"+. c #3F98C8",
"@. c #3F99C8",
"#. c #3F9AC8",
"$. c #548FC0",
"%. c #409AC8",
"&. c #409AC9",
"*. c #409BC9",
"=. c #409CCA",
"-. c #419CCA",
";. c #419DCA",
":. c #419DCB",
">. c #419ECB",
",. c #419FCB",
"<. c #429FCC",
"1. c #5590C0",
"2. c #5892C2",
"3. c #5E96C4",
"4. c #5F97C4",
"5. c #6298C5",
"6. c #679CC7",
"7. c #689CC7",
"8. c #6B9FC9",
"9. c #42A0CC",
"0. c #42A0CD",
"q. c #42A1CD",
"w. c #43A1CD",
"e. c #43A2CD",
"r. c #43A2CE",
"t. c #43A3CE",
"y. c #43A3CF",
"u. c #43A4CF",
"i. c #44A4CF",
"p. c #44A5CF",
"a. c #44A5D0",
"s. c #44A6D0",
"d. c #45A6D0",
"f. c #45A6D1",
"g. c #45A7D1",
"h. c #45A8D1",
"j. c #45A8D2",
"k. c #45A9D2",
"l. c #46A9D2",
"z. c #46AAD2",
"x. c #46AAD3",
"c. c #46ABD3",
"v. c #46ABD4",
"b. c #47ABD4",
"n. c #41ACD4",
"m. c #42ADD5",
"M. c #43ADD5",
"N. c #44ADD5",
"B. c #47ACD4",
"V. c #47ADD4",
"C. c #47ADD5",
"Z. c #45AED5",
"A. c #46AED5",
"S. c #47AED5",
"D. c #46AED6",
"F. c #47AED6",
"G. c #47AFD6",
"H. c #48AED5",
"J. c #48AED6",
"K. c #48AFD6",
"L. c #49AFD6",
"P. c #4AB0D6",
"I. c #4AB0D7",
"U. c #4BB0D7",
"Y. c #4DB1D7",
"T. c #4EB2D7",
"R. c #4FB2D8",
"E. c #50B3D8",
"W. c #52B3D8",
"Q. c #54B4D9",
"!. c #55B5D9",
"~. c #57B6D9",
"^. c #59B6DA",
"/. c #5AB7DA",
"(. c #5BB7DA",
"). c #5CB8DA",
"_. c #5CB8DB",
"`. c #6EA0CA",
"'. c #6FA1CA",
"]. c #70A1CA",
"[. c #75A5CC",
"{. c #76A5CD",
"}. c #7AA8CE",
"|. c #7CAACF",
" X c #7DAACF",
".X c #60BADB",
"XX c #61BADC",
"oX c #63BBDC",
"OX c #64BBDC",
"+X c #68BDDD",
"@X c #6CBFDE",
"#X c #6EC0DF",
"$X c #72C1DF",
"%X c #74C2E0",
"&X c #75C3E0",
"*X c #79C4E1",
"=X c #7AC5E1",
"-X c #7BC5E2",
";X c #7EC6E2",
":X c #7EC7E2",
">X c #7FC7E2",
",X c #80ACD0",
"<X c #81ADD0",
"1X c #82ADD1",
"2X c #8BB3D4",
"3X c #8EB5D5",
"4X c #92B8D7",
"5X c #80C7E3",
"6X c #86CAE4",
"7X c #87CAE4",
"8X c #8ACCE5",
"9X c #8BCCE5",
"0X c #8FCEE6",
"qX c #90CFE6",
"wX c #98D2E8",
"eX c #99D3E8",
"rX c #9ED5E9",
"tX c None",
/* pixels */
"tXtXtXtXtXtXtXtXtXtXtXtXtXtXtXtXtXtXtXtXtXtXtXtXtXtXtXtXtXtXtXtXtXtXtXtXtXtXtXtXtXtXtXtXtXtXtXtXtXtXtXtXtXtXtXtXtXtXtXtXtXtXtXtX",
"tXtXtXtXtXtXtXtXtXtXtXtXtXtXtXtXtXtXtXtXtXtXtXtXtXtXtXtXtXtXtXtXtXtXtXtXtXtXtXtXtXtXtXtXtXtXtXtXtXtXtXtXtXtXtXG.tXtXtXtXtXtXtXtX",
"tXtXtXtXtXtXtXtXtXtXtXtXtXtXtXtXtXtXtXtXI.G.G.h.M.G.G.G.K.G.G.K.K.K.K.K.K.K.K.K.K.K.K.tXtXtXtXtXtXtXtXtXtXtXG.tXtXtXtXtXtXtXtXtX",
"tXtXtXtXtXtXtXtXtXtXtXtXtXtXtXtXtXK.I.M.M.U.XX=X6X8X6X>X-X$X@X+XXX/.!.E.U.K.K.K.K.K.K.K.K.K.tXtXtXtXtXtXtXb.b.tXtXtXtXtXtXtXtXtX",
"tXtXtXtXtXtXtXtXtXtXtXtXtXtXtXK.I.M.G.(.5XwXrXeX0X6X5X$X#XOX/.Q.E.U.K.K.K.K.K.K.K.K.K.K.G.I.I.c.tXtXtXb.b.b.tXtXtXtXtXtXtXtXtXtX",
"tXtXtXtXtXtXtXtXtXtXtXtXtXtXK.G.c./.=X0X9X5X$X+X)./.E.U.K.K.G.G.G.K.K.K.K.K.K.K.K.K.K.K.G.c.G.c.K.tXb.b.s.b.tXtXtXtXtXtXtXtXtXtX",
"tXtXtXtXtXtXtXtXtXtXtXtXtXK.G.I.OX*X$XOX(.!.U.U.I.G.G.G.K.K.K.K.K.K.K.K.K.K.K.K.K.K.K.K.G.c.b.b.b.b.b.p.h.tXtXtXtXtXtXtXtXtXtXtX",
"tXtXtXtXtXtXtXtXtXtXtXK.K.K.I./.(.E.U.K.G.K.G.K.G.I.G.G.K.K.K.K.K.K.K.K.K.K.K.K.K.K.V.c.K.c.b.b.b.s.s.b.tXtXtXtXtXtXtXtXtXtXtXtX",
"tXtXtXtXtXtXtXtXtXtXtXK.K.K.U.K.G.G.G.K.K.K.K.K.K.K.K.K.K.K.K.K.K.K.K.K.K.K.K.K.G.c.V.b.b.b.b.s.b.s.s.s.tXtXtXtXtXtXtXtXtXtXtXtX",
"tXtXtXtXtXtXtXtXtXtXK.K.K.K.K.K.K.K.G.K.K.K.K.K.K.K.K.K.K.K.K.K.K.K.K.K.K.c.G.b.b.b.b.b.b.b.p.b.s.b.s.tXtXtXtXtXtXtXtXtXtXtXtXtX",
"tXtXtXtXtXtXtXtXtXK.K.K.K.K.K.K.K.K.K.K.K.K.K.K.K.K.K.K.K.K.K.K.K.K.K.K.G.G.G.c.b.b.b.b.b.s.b.s.s.s.s.tXtXtXtXtXtXtXtXtXtXtXtXtX",
"tXtXtXtXtXtXtXtXtXK.K.K.K.K.K.K.K.K.K.K.K.K.K.K.K.K.tXtXtXtXtXtXtXtXtXtXtXb.b.b.b.p.b.p.s.s.p.s.s.s.tXtXtXtXtXtXtXtXtXtXtXtXtXtX",
"tXtXtXtXtXtXtXtXK.K.K.K.K.K.K.K.K.K.K.K.K.K.K.K.K.K.tXtXtXtXtXtXtXtXtXtXtXb.b.s.b.p.b.p.s.s.s.p.t.s.tXtXtXtXtXtXtXtXtXtXtXtXtXtX",
"tXtXtXtXtXtXtXK.K.K.K.K.K.K.K.K.K.K.K.K.K.K.K.K.K.tXtXtXtXtXtXtXtXtXtXtXb.b.b.h.h.p.s.s.s.p.t.p.t.tXtXtXtXtXtXtXtXtXtXtXtXtXtXtX",
"tXtXtXtXtXtXtXK.K.K.K.K.K.K.K.K.K.K.K.K.K.K.K.K.K.tXtXtXtXtXtXtXtXtXtXtXb.b.p.h.h.s.s.p.p.t.y.t.tXtXtXtXtXtXtXtXtXtXtXtXtXtXtXtX",
"tXtXtXtXtXtXK.K.K.K.K.K.K.K.K.K.K.K.K.K.K.K.K.K.tXtXtXtXtXtXtXtXtXtXtXb.p.p.h.p.s.s.p.y.y.y.y.9.tXtXtXtXtXtXtXtXtXtXtXtXtXtXtXtX",
"tXtXtXtXtXtXK.K.K.K.K.K.K.K.K.K.K.K.K.K.K.K.K.tXtXtXtXtXtXtXtXtXtXtXtXs.s.s.p.p.t.t.t.t.y.y.y.tXtXtXtXtXtXtXtXtXtXtXtXtXtXtXtXtX",
"tXtXtXtXtXK.K.K.K.K.K.K.K.K.K.K.K.K.K.K.K.K.K.tXtXtXtXtXtXtXtXtXtXtXf.s.s.s.p.t.t.t.t.t.y.<.,.tXtXtXtXtXtXtXtXtXtXtXtXtXtXtXtXtX",
"tXtXtXtXK.K.K.K.K.K.K.K.K.K.K.K.K.K.K.K.K.b.tXtXtXtXtXtXtXtXtXtXtXtXs.s.p.p.y.9.t.t.y.<.,.,.tXtXtXtXtXtXtXtXtXtXtX%.| tXtXtXtXtX",
"tXtXtXtXK.K.K.K.K.K.K.K.K.K.K.K.K.K.V.K.G.G.tXtXtXtXtXtXtXtXtXtXtXs.s.i.t.t.y.y.t.<.<.<.,.tXtXtXtXtXtXtXtXtXtXtXtX%.| tXtXtXtXtX",
"tXtXtXK.K.K.K.K.K.K.K.K.K.K.K.K.G.G.c.b.b.tXtXtXtXtXtXtXtXtXtXtXs.s.t.t.y.y.,.y.<.<.<.,.<.tXtXtXtXtXtXtXtXtXtXtX+.| | | tXtXtXtX",
"tXtXtXK.K.K.K.K.K.K.K.K.K.K.K.K.c.c.c.b.tXtXtXtXtXtXtXtXtXtXtXtXt.t.t.t.<.y.,.<.<.,.<.%.tXtXtXtXtXtXtXtXtXtXtXtX| | | ] ] tXtXtX",
"tXtXK.K.K.K.K.K.K.K.K.K.V.K.K.c.V.b.b.b.tXtXtXtXtXtXtXtXtXtXtXy.<.t.<.t.<.<.<.<.<.%.,.%.tXtXtXtXtXtXtXtXtXtXtX| | | ] ] ] tXtXtX",
"tXtXK.K.K.K.K.K.K.K.K.K.c.b.c.c.b.b.b.tXtXtXtXtXtXtXtXtXtXtXtXy.t.t.<.<.<.<.<.%.<.<.%.tXtXtXtXtXtXtXtXtXtXtXtX| _ | ] ) ) ) tXtX",
"tXK.K.K.K.K.K.K.V.c.K.c.b.b.b.c.b.s.b.tXtXtXtXtXtXtXtXtXtXtXy.y.<.<.<.,.,.<.<.%.,.+.%.tXtXtXtXtXtXtXtXtXtXtX[ [ ] _ ) ) ) ) tXtX",
"tXK.K.K.K.G.K.G.K.b.V.b.b.b.s.s.p.b.tXtXtXtXtXtXtXtXtXtXtX,.<.,.<.<.<.<.%.%.<.%.%.%.tXtXtXtXtXtXtXtXtXtXtX[ ) ) _ ) ) E E E ~ tX",
"tXK.K.K.G.G.c.b.c.b.b.b.b.b.s.b.b.s.tXtXtXtXtXtXtXtXtXtXtXy.<.,.,.,.,.%.=.%.%.%.%.tXtXtXtXtXtXtXtXtXtXtXtX) ) ) ~ ~ ~ E ~ S D tX",
"K.K.K.K.G.c.c.b.b.s.b.b.s.b.s.s.p.tXtXtXtXtXtXtXtXtXtXtXtXtXtXtXtXtXtXtX%.%.%.&.%.tXtXtXtXtXtXtXtXtXtXtX) ) ) E ~ ~ ~ S D ~ D tX",
"K.K.G.c.c.c.h.b.b.b.s.h.s.s.s.s.tXtXtXtXtXtXtXtXtXtXtXtXtXtXtXtXtXtXtXtXtXtXtXtXtXtXtXtXtXtXtXtXtXtXtXtX~ ~ ~ ~ ~ S D S S S S S ",
"G.b.c.b.c.b.b.b.b.p.b.s.s.s.s.p.tXtXtXtXtXtXtXtXtXtXtXtXtXtXtXtXtXtXtXtXtXtXtXtXtXtXtXtXtXtXtXtXtXtXtX) ~ ~ ~ D D ~ D S S S S v ",
"b.b.b.b.b.b.h.s.p.b.p.p.s.p.p.tXtXtXtXtXtXtXtXtXtXtXtXtXtXtXtXtXtXtXtXtXtXtXtXtXtXtXtXtXtXtXtXtXtXtXE ) ~ D D S S S S M M S v n ",
"b.b.b.p.b.s.p.b.p.p.p.p.p.y.y.tXtXtXtXtXtXtXtXtXtXtXtXtXtXtXtXtXtXtXtXtXtXtXtXtXtXtXtXtXtXtXtXtXtXtXE D D ~ D S S S S S m n n n ",
"b.b.b.f.f.s.s.s.s.t.t.t.y.y.tXtXtXtXtXtXtXtXtXtXtXtXtXtXtXtXtXtXtXtXtXtXtXtXtXtXtXtXtXtXtXtXtXtXtXS D ~ S S S S S v n n n n n f ",
"p.b.f.f.f.s.s.p.i.t.t.t.y.y.tXtXtXtXtXtXtXtXtXtXtXtXtXtXtXtXtXtXtXtXtXtXtXtXtXtXtXtXtXtXtXtXtXtXtX~ S S S S S v S M n n n n n f ",
"s.s.f.s.s.p.t.t.t.t.t.t.,.tXtXtXtXtXtXtXtXtXtXtXtXtXtXtXtXtXtXtXtXtXtXtXtXtXtXtXtXtXtXtXtXtXtXtXS S S S S m m m v v v n m a f f ",
"f.s.s.p.p.t.t.t.t.<.,.y.tXtXtXtXtXtXtXtXtXtXtXtXtXtXtXtXtXtXtXtXtXtXtXtXtXtXtXtXtXtXtXtXtXtXtXtXS S S m m S v m v v v a a m a a ",
"tXs.p.t.y.y.y.t.t.<.<.<.tXtXtXtXtXtXtXtXtXtXtX%.%.O.| tXtXtXtXtXtXtXtXtXtXtXtXtXtXtXtXtXtXtXtXM M S n n n n m m v a g v v a a p ",
"tXp.t.t.y.y.,.,.<.<.<.tXtXtXtXtXtXtXtXtXtXtXtX..| | | | | [ | ) ] _ ] tXtXtXtXtXtXtXtXtXtXtXS T S v n n n n f n v v a a a a a tX",
"tXt.t.t.<.<.<.<.,.,.<.tXtXtXtXtXtXtXtXtXtXtX....| | | | ) ) ) ) ) ~ ] tXtXtXtXtXtXtXtXtXtXtXn n v n n n n f n f a a a a a a 7 tX",
"tXtXt.<.y.<.<.<.%.,.tXtXtXtXtXtXtXtXtXtXtX....| _ | ] ] ) ) ) ) ) ~ tXtXtXtXtXtXtXtXtXtXtXS n n v v a n a f a a a a r a 7 7 7 tX",
"tXtXt.;.<.,.,.%.,.%.tXtXtXtXtXtXtXtXtXtXtX| | ] ) [ ) ) ) ) ) ~ ~ tXtXtXtXtXtXtXtXtXtXtXtXn n n v v a v g a a a p p 7 r 7 r tXtX",
"tXtXtX;.<.,.<.%.%.tXtXtXtXtXtXtXtXtXtXtX| ] ] ] ) ) ) ) ) D ) E D tXtXtXtXtXtXtXtXtXtXtXn v v v a a v a a a a r 7 p 7 7 7 : tXtX",
"tXtXtX;.=.<.%.%.tXtXtXtXtXtXtXtXtXtXtXtX] ] ] _ ) ) ~ ~ ! E E D tXtXtXtXtXtXtXtXtXtXtXtXv v v v v a a a p p r r 7 7 7 7 7 tXtXtX",
"tXtXtXtX%.%.%.%.tXtXtXtXtXtXtXtXtXtXtX] ] _ _ ~ ) ) D ~ D E ~ D tXtXtXtXtXtXtXtXtXtXtXv a v a a a a p p a 7 7 7 7 7 : : : tXtXtX",
"tXtXtXtX%.%.&.tXtXtXtXtXtXtXtXtXtXtXtX) _ ^ ^ ~ ~ ~ D D ~ D S tXtXtXtXtXtXtXtXtXtXtXv a v p a a p a 7 a r 7 : 7 : 7 & & tXtXtXtX",
"tXtXtXtXtX%.%.tXtXtXtXtXtXtXtXtXtXtX) ) ~ ~ ~ ~ D ~ ~ S S S tXtXtXtXtXtXtXtXtXtXtXtXv a a a a 7 p 7 7 7 7 7 : 7 & & & & tXtXtXtX",
"tXtXtXtXtXtXtXtXtXtXtXtXtXtXtXtXtX) ) ~ E E ~ ~ S S S S S S tXtXtXtXtXtXtXtXtXtXtXa a a p p u a r 7 7 7 : : & & & & & tXtXtXtXtX",
"tXtXtXtXtXtXtXtXtXtXtXtXtXtXtXtXtX~ ~ ) E D S S S S n S S tXtXtXtXtXtXtXtXtXtXtXtXa a p u 7 7 7 7 7 : & 7 & & & & & tXtXtXtXtXtX",
"tXtXtXtXtXtXtXtXtXtXtXtXtXtXtXtX~ S ~ ~ D S S S S M S v S tXtXtXtXtXtXtXtXtXtXtXg r r 7 7 r 7 7 : 7 & & & & & & & & tXtXtXtXtXtX",
"tXtXtXtXtXtXtXtXtXtXtXtXtXtXtXtX~ ~ S S S S M S M S m n tXtXtXtXtXtXtXtXtXtXtXtX7 7 r r 7 7 : : & & & & & & & & & tXtXtXtXtXtXtX",
"tXtXtXtXtXtXtXtXtXtXtXtXtXtXtX~ T T S T S S M S m m v n tXtXtXtXtXtXtXtXtXtXtXr r 7 7 7 : : : & & & & & & & & & & tXtXtXtXtXtXtX",
"tXtXtXtXtXtXtXtXtXtXtXtXtXtXtXT T T M S S n m M m v m tXtXtXtXtXtXtXtXtXtXtX7 r 7 7 7 : : : @ : & & & & & & & & tXtXtXtXtXtXtXtX",
"tXtXtXtXtXtXtXtXtXtXtXtXtXtXD S T S n S n n v v v v v tXtXtXtXtXtXtXtXtXtXtX7 7 : 7 : : : @ : @ & & & & & & & & tXtXtXtXtXtXtXtX",
"tXtXtXtXtXtXtXtXtXtXtXtXtXT S S M S m n n n n v v a v a a a tXtXtXtXtXtXtX7 7 : : : - - @ : @ : & & & & & & & tXtXtXtXtXtXtXtXtX",
"tXtXtXtXtXtXtXtXtXtXtXtXtXS S m n n n n n n v v v a a v a p p a r 7 7 7 7 : : : @ : @ : - @ - : & & : & & & tXtXtXtXtXtXtXtXtXtX",
"tXtXtXtXtXtXtXtXtXtXtXtXS m S n n n n f n a a v a a a a a p 7 7 7 7 7 : : & & @ : @ : @ - : O O & : & & & & tXtXtXtXtXtXtXtXtXtX",
"tXtXtXtXtXtXtXtXtXtXtXtXS n n n v a n a v a a a g g r r 7 7 7 7 7 : & & & & & & - - O O : : w L J : & & & tXtXtXtXtXtXtXtXtXtXtX",
"tXtXtXtXtXtXtXtXtXtXtXm n v n v v v a v v a a a 7 r r 7 7 7 : 7 : : & & & & & & 7 w F H U 3.7.Y q & & & tXtXtXtXtXtXtXtXtXtXtXtX",
"tXtXtXtXtXtXtXtXtXtXm m m m tXa v a a a a a a a 7 7 r 7 7 : : @ & @ @ & 7 l G P Y 4.8.}.1X].J O & & tXtXtXtXtXtXtXtXtXtXtXtXtXtX",
"tXtXtXtXtXtXtXtXtXtXv v v tXtXtXv a a p a r 7 7 6 7 7 : : : 7 q l H I 2.4.8.{. X2X4X3X{.U @ O - & tXtXtXtXtXtXtXtXtXtXtXtXtXtXtX",
"tXtXtXtXtXtXtXtXtXv v v tXtXtXtXtXtXg a r 7 7 7 7 7 : q t G H Y 2.4.7.8.}.|.,X|.'.2.l X X & : tXtXtXtXtXtXtXtXtXtXtXtXtXtXtXtXtX",
"tXtXtXtXtXtXtXtXtXv tXtXtXtXtXtXtXtXtXtX7 7 7 7 : : : : - : ; - @ - : : @ @ @ X   X O : : tXtXtXtXtXtXtXtXtXtXtXtXtXtXtXtXtXtXtX",
"tXtXtXtXtXtXtXtXv tXtXtXtXtXtXtXtXtXtXtXtXtXtXtXtXtXtXtXtXtXtXtXtXtXtXtXtXtXtXtXtXtXtXtXtXtXtXtXtXtXtXtXtXtXtXtXtXtXtXtXtXtXtXtX",
"tXtXtXtXtXtXtXtXtXtXtXtXtXtXtXtXtXtXtXtXtXtXtXtXtXtXtXtXtXtXtXtXtXtXtXtXtXtXtXtXtXtXtXtXtXtXtXtXtXtXtXtXtXtXtXtXtXtXtXtXtXtXtXtX"
};
